# xmcd
#
# Track frame offsets: 
#        150
#        20174
#        32140
#        49944
#        71538
#        94082
#        110624
#        123662
#        145674
#        168471
#        182206
#        197831
#
# Disc length: 2964 seconds
#
# Revision: 0
# Processed by: cddbd v1.5.2PL0 Copyright (c) Steve Scherf et al.
# Submitted via: ExactAudioCopy v0.95a4
#
DISCID=b20b920c
DTITLE=Fruteland Jackson - Good As Your Last Dollar
DYEAR=2019
DGENRE=Blues
TTITLE0=Two Steps To Hell
TTITLE1=When Death Comes Creepin' In
TTITLE2=Good As Your Last Dollar
TTITLE3=Careless Love
TTITLE4=All The Dad I Had
TTITLE5=How's It Going?
TTITLE6=All Pain, No Gain
TTITLE7=Just Another Day
TTITLE8=Damaged Goods
TTITLE9=Love In Vain
TTITLE10=Peace In Hell
TTITLE11=Blues 2.0
EXTD=
EXTT0=
EXTT1=
EXTT2=
EXTT3=
EXTT4=
EXTT5=
EXTT6=
EXTT7=
EXTT8=
EXTT9=
EXTT10=
EXTT11=
PLAYORDER=
